<?xml version="1.0" encoding="UTF-8" standalone="no"?>
<svg
   version="1.2"
   viewBox="0 0 226 43.400002"
   width="226"
   height="43.400002"
   id="svg1"
   sodipodi:docname="PinkTitle.svg"
   inkscape:version="1.3.2 (091e20e, 2023-11-25, custom)"
   xmlns:inkscape="http://www.inkscape.org/namespaces/inkscape"
   xmlns:sodipodi="http://sodipodi.sourceforge.net/DTD/sodipodi-0.dtd"
   xmlns="http://www.w3.org/2000/svg"
   xmlns:svg="http://www.w3.org/2000/svg">
  <defs
     id="defs1" />
  <sodipodi:namedview
     id="namedview1"
     pagecolor="#ffffff"
     bordercolor="#000000"
     borderopacity="0.25"
     inkscape:showpageshadow="2"
     inkscape:pageopacity="0.0"
     inkscape:pagecheckerboard="0"
     inkscape:deskcolor="#d1d1d1"
     inkscape:zoom="4.781746"
     inkscape:cx="111.361"
     inkscape:cy="39.839004"
     inkscape:window-width="1920"
     inkscape:window-height="1017"
     inkscape:window-x="-8"
     inkscape:window-y="-8"
     inkscape:window-maximized="1"
     inkscape:current-layer="svg1" />
  <style
     id="style1">
		.s0 { fill: #c43285 } 
	</style>
  <g
     id="Layer 1"
     transform="translate(-12,-48.2)">
    <path
       id="Agradecimientos"
       class="s0"
       aria-label="Agradecimientos"
       d="M 14.1,75.4 Q 13,75.2 12.6,74.5 12.3,73.8 12.3,73 q 0,-1 0.7,-2.1 0.6,-1.2 1.1,-1.7 -1,-0.1 -1.6,-0.7 -0.5,-0.6 -0.5,-1 0,-0.3 0.2,-0.3 0.3,0 0.5,0.1 0.9,0.4 2.3,0.4 0.6,-0.8 1.9,-2.5 1.3,-1.7 3,-3.8 1.8,-2.1 3.7,-4.3 1.9,-2.1 3.8,-3.9 1.9,-1.9 3.4,-3 1.7,-1.1 2.6,-1.1 1,0 1.7,0.6 0.8,0.5 1.2,1.1 0.5,0.6 0.5,0.6 -0.9,1.2 -2.1,3.8 -1.1,2.4 -2.2,5.5 -1,3 -1.7,5.9 0.7,0 1.3,0.6 0.6,0.7 0.6,1.3 0,0 -0.7,-0.3 -0.7,-0.3 -1.5,-0.2 -0.1,0.5 -0.4,1.6 -0.2,1 -0.4,2.3 -0.2,1.2 -0.2,2.1 0,0.4 0,0.7 0.1,0.2 0.1,0.4 -1,0.3 -1.5,-0.8 -0.4,-1 -0.4,-2.5 0,-2.1 0.6,-3.9 -4.6,0.2 -7.4,0.8 -2.7,0.5 -3.8,1 -0.9,1.3 -1.8,3 -0.8,1.6 -1.2,2.7 z m 4.4,-7.8 q 1.5,-0.3 3.5,-0.5 2.1,-0.3 3.9,-0.5 1.8,-0.2 2.8,-0.2 0.2,-0.6 0.7,-2.2 0.4,-1.7 1.1,-3.9 0.8,-2.2 1.9,-4.6 1,-2.4 2.3,-4.7 -0.1,-0.2 -0.4,-0.2 -0.8,0 -2,1 -1.3,0.9 -2.9,2.5 -1.6,1.6 -3.3,3.5 -1.6,1.9 -3.2,3.8 -1.5,1.9 -2.7,3.5 -1.2,1.5 -1.7,2.5 z m 11.4,24 q -2,0 -2.7,-1 -0.6,-0.9 -0.5,-2 0.1,-1.7 1.2,-3.3 1.1,-1.5 2.7,-2.9 1.7,-1.4 3.6,-2.5 1.9,-1.2 3.7,-2.1 1.8,-0.9 3.1,-1.6 1.3,-0.7 1.8,-1.1 0.8,-2 1.1,-4 0.3,-1.9 0.2,-3.4 -0.4,1 -1.4,2.5 -0.9,1.5 -2.1,2.8 -0.9,1 -2,1.8 -1,0.6 -2.1,0.6 -1.5,0 -2.1,-1 -0.5,-1.1 -0.5,-2.4 0,-0.5 0,-0.9 0.1,-0.4 0.1,-0.8 0.4,-1.5 1.2,-3 0.7,-1.5 1.6,-2.7 0.8,-1.3 1.4,-1.9 1.4,-1.6 3.2,-2.7 1.9,-1.1 3.9,-1.1 2,0 3.7,1.4 0.7,0.5 0.7,1.1 0,0.8 -0.5,0.8 -0.5,0 -0.7,-0.6 -0.6,-1.8 -2,-1.8 -1.4,0 -2.9,1 -1.4,1 -2.8,2.5 -1.3,1.6 -2.4,3.4 -1,1.7 -1.6,3.4 -0.7,1.6 -0.7,2.6 0,1.3 1,1.3 0.9,0 2,-0.9 1.1,-0.9 2.1,-2.2 1,-1.4 1.7,-2.7 0.8,-1.4 1,-2.2 0.4,-1.1 0.8,-1.4 0.5,-0.3 1,-0.3 0.2,0 0.4,0 0.2,0 0.4,0 0,0.3 0,0.8 0.1,0.4 0.1,1.1 0,1.4 -0.2,3.4 -0.2,2 -0.6,3.9 l 0.5,-0.4 q 1.3,-0.9 2.4,-1.8 1.2,-1 1.8,-1.6 0.5,-0.5 1,-1 0.4,-0.5 0.8,-1 0.1,-0.2 0.2,-0.2 0.3,0 0.3,0.4 0,0.3 -0.3,0.5 -1,1.2 -2,2.5 -0.3,0.3 -1.5,1.3 -1.1,1 -2.3,1.8 -0.6,0.5 -1.2,0.9 -0.9,3.1 -2.6,6.1 -1.5,2.9 -3.6,5.4 -2.1,2.3 -4.5,3.8 -2.4,1.4 -4.9,1.4 z m -0.2,-1 q 1.8,0 3.8,-1.4 1.9,-1.4 3.7,-3.5 1.8,-2.2 3.2,-4.6 1.4,-2.5 2.1,-4.6 -0.8,0.5 -2.6,1.4 -1.6,0.8 -3.7,1.9 -2,1.1 -3.9,2.5 -1.9,1.4 -3.2,3.1 -1.2,1.6 -1.3,3.4 -0.1,0.6 0.3,1.2 0.5,0.6 1.6,0.6 z M 58.6,75.2 q -0.9,0 -1.5,-0.6 -0.6,-0.6 -0.6,-1.7 0,-0.6 0.1,-1 0.1,-0.5 0.2,-0.8 0.2,-0.7 0.9,-1.9 0.7,-1.1 1.5,-2.3 0.8,-1.3 1.4,-2.3 0.7,-1.3 0.7,-2.2 0,-1 -0.9,-1.5 -0.3,-0.3 -0.6,-0.5 -0.4,-0.2 -0.6,-0.4 l -1.4,2.2 q -1.1,1.5 -2.3,3.2 -1.3,1.7 -2.4,3.1 -1.1,1.4 -2,2.3 -0.1,0.2 -0.2,0.2 -0.3,0 -0.4,-0.3 -0.2,-0.2 0,-0.4 1.9,-2.1 3.6,-4.3 1.7,-2.2 3.2,-4.6 l 1.1,-2 q -0.2,-0.1 -0.6,-0.6 -0.4,-0.5 -0.8,-1.1 -0.3,-0.6 -0.3,-1 0,-0.4 0.2,-0.6 0.3,-0.2 1,-0.2 1.6,0 1.6,3.5 0.6,0.5 1.4,0.8 0.8,0.2 1.6,0.5 0.7,0.3 1.2,0.7 0.5,0.5 0.5,1.5 0,0.8 -0.5,1.9 -0.4,1 -1,1.8 -0.6,0.7 -1.3,1.7 -0.7,1 -1.3,2 -0.6,1 -0.9,1.8 -0.2,0.7 -0.2,1 0,0.6 0.6,0.6 0.5,0 1.2,-0.5 1,-0.5 2.1,-1.4 1.1,-1 2,-2.1 0.5,-0.5 0.9,-1 0.5,-0.5 0.8,-1 0.2,-0.2 0.3,-0.2 0.3,0 0.3,0.5 0,0.2 -0.2,0.4 -1,1.2 -2.1,2.5 -1,1.3 -2.2,2.3 -0.7,0.6 -1.9,1.3 -1.1,0.7 -2.2,0.7 z m 9.4,0 q -1.5,0 -2.1,-0.8 -0.7,-0.7 -0.7,-1.8 0,-1.5 0.7,-3.1 0.7,-1.6 1.2,-2.5 1.3,-2 3.1,-3.9 1.7,-1.8 3.7,-3 2,-1.2 3.8,-1.2 0.9,0 1.9,0.4 0.9,0.2 1.7,1 0.4,0.3 0.6,0.6 0.2,0.3 0.2,0.5 0,0.8 -0.6,0.8 -0.5,0 -0.7,-0.6 -0.6,-1.6 -2,-1.6 -1.1,0 -2.7,1.1 -1.5,1.1 -3,2.6 -1.6,1.7 -2.9,3.7 -1.3,1.9 -2,3.6 -0.3,0.7 -0.5,1.2 -0.1,0.6 -0.1,0.9 0,0.9 0.7,0.9 0.8,0 2.4,-1.2 1.1,-0.9 2.3,-2.2 1.3,-1.3 2.3,-2.5 1.1,-1.3 1.7,-2 0.2,-0.4 0.4,-0.7 0.3,-0.3 0.4,-0.6 0.2,-0.2 0.7,-0.4 0.4,-0.1 0.9,-0.1 0.6,0 1,0.2 0.3,0.2 0.1,0.7 0,0 -0.5,1 -0.5,0.9 -1.3,2.1 -0.6,1.3 -1.1,2.5 -0.3,0.7 -0.5,1.3 -0.2,0.5 -0.2,0.9 0,0.6 0.5,0.6 0.3,0 1,-0.4 1,-0.5 2.1,-1.5 1.1,-1 2,-2 0.5,-0.5 0.9,-1 0.4,-0.5 0.8,-1 0.2,-0.2 0.3,-0.2 0.2,0 0.2,0.5 0,0.2 -0.2,0.4 -0.5,0.6 -1,1.3 -0.5,0.6 -1.1,1.2 -0.5,0.6 -1.1,1.2 -0.5,0.6 -1.1,1.1 -2,1.9 -3.7,1.9 -0.8,0 -1.3,-0.5 -0.5,-0.6 -0.5,-1.7 0,-0.9 0.3,-2.1 0.1,-0.5 0.3,-1 0.2,-0.6 0.4,-1.1 -1,1.5 -2.2,3 -1.2,1.5 -2.6,2.5 -1.3,1 -2.9,1 z m 17.5,0 q -1.6,0 -2.2,-0.8 -0.6,-0.7 -0.6,-1.8 0,-1.5 0.6,-3.1 0.7,-1.6 1.3,-2.5 1.3,-2 3,-3.9 1.8,-1.8 3.7,-3 2,-1.2 3.8,-1.2 1.3,0 2.5,0.6 0.2,-0.5 0.4,-0.9 0.2,-0.4 0.4,-0.8 1.6,-3 2.8,-5 1.2,-2.1 2.5,-3.2 1.4,-1.2 3.6,-1.4 -1.3,1.7 -2.3,3.1 -0.9,1.3 -1.8,2.8 -0.8,1.4 -1.7,3 -1,1.7 -2.1,4 0.1,0.3 0.1,0.3 0,0.4 -0.2,0.6 -0.2,0.2 -0.5,0.2 -1,2 -1.9,4 -0.9,2 -1.5,3.8 -0.6,1.6 -0.6,2.6 0,1 0.7,1 0.4,0 1.1,-0.4 1,-0.5 2,-1.4 1.1,-1 2,-2.1 0.6,-0.5 1,-1 0.4,-0.5 0.8,-1 0.1,-0.2 0.2,-0.2 0.3,0 0.3,0.4 0,0.3 -0.2,0.5 -0.8,1 -1.6,2.1 -0.9,1 -1.8,1.9 -0.2,0.2 -0.4,0.5 -0.2,0.2 -0.4,0.3 -1,0.8 -2.1,1.4 -1,0.6 -1.8,0.6 -1.2,0 -1.6,-0.7 -0.4,-0.8 -0.4,-1.8 0,-0.6 0.1,-1.4 0.1,-0.7 0.3,-1.2 0.2,-0.5 0.4,-1.2 0.2,-0.7 0.5,-1.3 -1.1,1.6 -2.4,3.4 -1.3,1.7 -2.8,3 -1.6,1.2 -3.2,1.2 z M 85.8,74 q 0.8,0 2.3,-1.2 1.2,-0.9 2.4,-2.2 1.2,-1.3 2.3,-2.5 1.1,-1.3 1.7,-2 0.5,-1.4 1.2,-2.9 0.7,-1.5 1.5,-3 -0.4,-0.2 -0.9,-0.2 -1.2,0 -2.8,1.1 -1.5,1.1 -2.9,2.6 -1.7,1.7 -3,3.7 -1.3,1.9 -2,3.6 -0.3,0.7 -0.5,1.2 -0.1,0.6 -0.1,0.9 0,0.9 0.8,0.9 z m 19.9,1.7 q -1.8,0 -2.8,-1 -1,-1 -1,-2.9 0,-1.4 0.5,-3 0.5,-1.6 1.1,-2.5 1.1,-2 2.6,-3.6 1.6,-1.7 3.2,-2.7 1.6,-1 3,-1 1.3,0 2.2,0.7 1,0.7 1,1.9 0,0.5 -0.3,1.1 -0.2,0.6 -0.7,1.3 -1.9,2.4 -4.3,3.8 -2.3,1.3 -5.2,2 -0.2,0.6 -0.3,1.2 -0.2,0.6 -0.3,1.1 0,0.2 -0.1,0.5 0,0.2 0,0.4 0,1 0.5,1.4 0.4,0.4 1.1,0.4 1,0 2.2,-0.6 1.2,-0.5 2.3,-1.2 1,-0.8 1.5,-1.2 0.6,-0.5 1,-0.9 0.6,-0.6 1.2,-1.2 0.5,-0.5 0.9,-1 0.4,-0.5 0.8,-1 0.1,-0.2 0.2,-0.2 0.3,0 0.3,0.5 0,0.2 -0.2,0.4 -0.8,1 -1.7,2.1 -0.8,1 -1.7,1.9 -1.1,1.1 -2.9,2.2 -1.9,1.1 -4.1,1.1 z m -0.4,-6.5 q 1.2,-0.6 2.8,-1.6 1.7,-1 3.2,-2.3 1.6,-1.5 2.6,-3.1 0.3,-0.5 0.3,-0.9 0,-0.7 -0.7,-0.7 -0.6,0 -1.3,0.4 -2.4,1.3 -4.1,3.4 -1.7,2.2 -2.8,4.8 z m 13.7,6.5 q -1.9,0 -3,-0.9 -1.1,-1 -1.1,-3 0,-1.5 0.4,-3 0.5,-1.6 0.9,-2.5 1,-2 2.5,-3.6 1.4,-1.7 3,-2.7 1.6,-1 3,-1 1.3,0 2.1,0.9 0.8,0.9 0.8,2 0,1 -0.6,1.6 -0.6,0.9 -1.1,1.3 -0.5,0.4 -0.7,0.4 -0.3,0 -0.3,-0.3 0,-0.3 0.3,-0.9 0.1,-0.3 0.4,-1 0.2,-0.7 0.5,-1.5 0.2,-0.7 0.2,-0.9 -0.7,-0.2 -2.1,0.8 -1.3,0.9 -2.6,2.4 -1.4,1.5 -2.3,3.2 -0.2,0.3 -0.7,1.4 -0.5,1 -0.8,2.3 -0.4,1.2 -0.4,2.2 0,0.8 0.4,1.4 0.3,0.5 1.2,0.5 0.8,0 1.8,-0.4 1.9,-0.5 3.4,-1.9 1.5,-1.3 2.9,-2.8 0.5,-0.5 0.9,-1 0.4,-0.5 0.8,-0.9 0.1,-0.1 0.1,-0.2 0.1,-0.1 0.2,-0.1 0.2,0 0.2,0.4 0,0.3 -0.2,0.6 -0.5,0.6 -1,1.2 -0.5,0.6 -1,1.3 -1.6,1.7 -3.6,3.2 -1.9,1.5 -4.5,1.5 z m 18,-19.5 q -0.5,0 -0.8,-0.3 -0.4,-0.4 -0.4,-0.9 0,-0.7 0.5,-1.2 0.5,-0.5 1.2,-0.5 0.6,0 0.9,0.4 0.4,0.4 0.3,1 -0.1,0.7 -0.6,1.1 -0.4,0.4 -1.1,0.4 z M 130.5,75 q -1,0 -1.8,-0.7 -0.7,-0.7 -0.7,-2.3 0,-0.8 0.1,-1.6 0.4,-2.2 1.4,-4.3 1,-2 1.9,-3.5 0.9,-1.5 1.2,-2 0.2,-0.5 1.2,-0.9 1,-0.5 1.7,-0.5 0.6,0 0.6,0.4 0,0.3 -0.3,0.6 -0.7,1.2 -1.6,2.6 -0.9,1.5 -1.8,3.1 -0.8,1.6 -1.4,3.2 -0.6,1.5 -0.6,2.9 0,0.7 0.3,1.1 0.2,0.4 1,0.4 0.7,0 1.7,-0.7 1,-0.7 1.9,-1.7 1,-0.9 1.4,-1.4 0.5,-0.5 0.9,-1 0.5,-0.5 0.9,-1 0.1,-0.2 0.2,-0.2 0.3,0 0.3,0.5 0,0.2 -0.2,0.4 -0.5,0.6 -1.1,1.3 -0.5,0.6 -1,1.2 -0.8,0.9 -1.8,1.9 -0.9,0.9 -2,1.6 -1.1,0.6 -2.4,0.6 z m 3.8,0.3 q 2.1,-3.8 3.4,-7.3 1.4,-3.6 3.2,-7.2 0.5,-1 1.3,-1.3 0.8,-0.4 1.6,-0.4 0.6,0 1,0.2 -0.1,0.3 -0.7,1.3 -0.6,0.9 -1.3,2.2 -0.4,0.8 -1.4,2.6 -0.9,1.8 -1.7,3.7 0.4,-0.6 1.2,-1.7 0.9,-1.2 2,-2.4 1.2,-1.3 2.4,-2.5 1.2,-1.1 2.3,-1.8 1.1,-0.8 2,-0.8 1,0 1.3,0.5 0.4,0.5 0.4,1.2 0,0.8 -0.7,1.9 -0.6,1.1 -1.2,2.4 -0.4,0.7 -1,1.7 -0.5,1 -1,1.9 -0.5,0.9 -0.8,1.6 0.5,-1 1.4,-2.3 1,-1.5 2.2,-2.9 1.3,-1.6 2.6,-2.9 1.4,-1.4 2.6,-2.2 1.3,-0.8 2.2,-0.8 1,0 1.3,0.4 0.4,0.5 0.4,1.2 0,0.9 -0.6,2.1 -0.6,1.3 -1.5,2.5 -0.8,1.3 -1.7,2.5 -0.8,1.2 -1.3,2.1 -0.7,1.3 -0.7,2.1 0,0.7 0.7,0.7 0.5,0 1.1,-0.4 1.1,-0.5 2.1,-1.4 1.1,-1 2,-2.1 0.5,-0.6 1,-1.2 0.6,-0.6 0.8,-0.8 0.1,-0.2 0.2,-0.2 0.3,0 0.3,0.4 0,0.3 -0.3,0.5 -0.4,0.6 -1,1.3 -0.5,0.6 -1,1.2 -0.5,0.6 -1.1,1.2 -0.5,0.6 -1.1,1.1 -2.1,1.9 -3.8,1.9 -1,0 -1.5,-0.5 -0.4,-0.6 -0.4,-1.5 0,-1.3 0.6,-2.9 0.7,-1.7 1.6,-3.1 0.1,-0.2 0.6,-0.9 0.5,-0.8 1.2,-1.8 0.6,-1 1,-1.9 0.5,-0.9 0.5,-1.3 0,-0.3 -0.4,-0.2 -0.4,0.2 -1.3,1 -1.2,1 -2.6,2.5 -1.4,1.5 -2.9,3.4 -1.4,1.8 -2.6,3.8 -0.2,0.5 -0.6,1 -0.5,0.4 -1.2,0.4 h -0.1 q -0.3,0 -0.7,-0.1 -0.3,-0.2 -0.3,-0.9 0,-1.2 0.7,-2.8 0.8,-1.6 1.8,-3.3 1,-1.7 1.7,-3.1 0.2,-0.5 0.4,-0.9 0.2,-0.5 0.2,-0.7 0,-0.4 -0.4,-0.2 -0.4,0.1 -1.4,0.9 -1.1,0.9 -2.6,2.5 -1.4,1.6 -2.9,3.4 -1.5,1.8 -2.7,3.5 -1.2,1.7 -1.9,3 -0.2,0.5 -0.5,0.6 -0.3,0 -1,0 -0.5,0 -0.7,0.1 -0.3,0 -0.7,0.2 z M 170,56.2 q -0.5,0 -0.8,-0.3 -0.4,-0.4 -0.4,-0.9 0,-0.7 0.5,-1.2 0.5,-0.5 1.2,-0.5 0.6,0 0.9,0.4 0.4,0.4 0.3,1 -0.1,0.7 -0.6,1.1 -0.4,0.4 -1.1,0.4 z M 163.5,75 q -1,0 -1.8,-0.7 -0.7,-0.7 -0.7,-2.3 0,-0.8 0.1,-1.6 0.4,-2.2 1.4,-4.3 1,-2 1.9,-3.5 0.9,-1.5 1.2,-2 0.2,-0.5 1.2,-0.9 1,-0.5 1.7,-0.5 0.6,0 0.6,0.4 0,0.3 -0.3,0.6 -0.7,1.2 -1.6,2.6 -0.9,1.5 -1.8,3.1 -0.8,1.6 -1.4,3.2 -0.6,1.5 -0.6,2.9 0,0.7 0.3,1.1 0.2,0.4 1,0.4 0.7,0 1.7,-0.7 1,-0.7 1.9,-1.7 1,-0.9 1.4,-1.4 0.5,-0.5 0.9,-1 0.5,-0.5 0.9,-1 0.1,-0.2 0.2,-0.2 0.3,0 0.3,0.5 0,0.2 -0.2,0.4 -0.5,0.6 -1.1,1.3 -0.5,0.6 -1,1.2 -0.8,0.9 -1.8,1.9 -0.9,0.9 -2,1.6 -1.1,0.6 -2.4,0.6 z m 10.2,0.7 q -1.8,0 -2.8,-1 -1,-1 -1,-2.9 0,-1.4 0.5,-3 0.5,-1.6 1.1,-2.5 1.1,-2 2.6,-3.6 1.6,-1.7 3.2,-2.7 1.6,-1 3,-1 1.3,0 2.2,0.7 1,0.7 1,1.9 0,0.5 -0.3,1.1 -0.2,0.6 -0.7,1.3 -1.9,2.4 -4.3,3.8 -2.3,1.3 -5.2,2 -0.2,0.6 -0.3,1.2 -0.2,0.6 -0.3,1.1 0,0.2 -0.1,0.5 0,0.2 0,0.4 0,1 0.5,1.4 0.4,0.4 1.1,0.4 1,0 2.2,-0.6 1.2,-0.5 2.3,-1.2 1,-0.8 1.5,-1.2 0.6,-0.5 1,-0.9 0.6,-0.6 1.2,-1.2 0.5,-0.5 0.9,-1 0.4,-0.5 0.8,-1 0.1,-0.2 0.2,-0.2 0.3,0 0.3,0.5 0,0.2 -0.2,0.4 -0.8,1 -1.7,2.1 -0.8,1 -1.7,1.9 -1.1,1.1 -2.9,2.2 -1.9,1.1 -4.1,1.1 z m -0.4,-6.5 q 1.2,-0.6 2.8,-1.6 1.7,-1 3.2,-2.3 1.6,-1.5 2.6,-3.1 0.3,-0.5 0.3,-0.9 0,-0.7 -0.7,-0.7 -0.6,0 -1.3,0.4 -2.4,1.3 -4.1,3.4 -1.7,2.2 -2.8,4.8 z m 7.3,6.1 q 2,-3.8 3.3,-7.3 1.4,-3.6 3.2,-7.2 0.5,-1 1.3,-1.3 0.8,-0.4 1.6,-0.4 0.6,0 1.1,0.2 -0.2,0.3 -0.8,1.3 -0.5,0.9 -1.2,2.2 -0.5,0.8 -1.4,2.6 -1,1.8 -1.8,3.7 0.4,-0.5 1.3,-1.7 0.9,-1.2 2.1,-2.6 1.2,-1.4 2.5,-2.7 1.3,-1.3 2.6,-2.1 1.2,-0.9 2.2,-0.9 0.8,0 1.4,0.5 0.6,0.5 0.6,1.3 0,1.2 -1,2.8 -1,1.6 -2,3.1 -0.2,0.3 -0.8,1.1 -0.4,0.8 -1,1.8 -0.6,1 -1,2 -0.4,0.9 -0.4,1.4 0,0.5 0.4,0.5 0.9,0 1.9,-0.7 1,-0.7 1.9,-1.6 0.9,-1 1.4,-1.6 0.6,-0.5 1,-1.1 0.4,-0.5 0.8,-1 0.2,-0.1 0.3,-0.1 0.3,0 0.3,0.4 0,0.3 -0.2,0.5 -0.6,0.6 -1.1,1.3 -0.5,0.6 -1.1,1.2 -0.5,0.6 -1.1,1.2 -0.5,0.6 -1.1,1.1 -2,1.9 -3.8,1.9 -1.2,0 -1.6,-0.7 -0.4,-0.7 -0.4,-1.7 0,-1.2 0.7,-2.5 0.6,-1.3 1.5,-2.7 0.9,-1.4 1.8,-2.8 0.9,-1.3 1.6,-2.4 0.6,-1.1 0.6,-1.9 0,-0.3 -0.4,-0.3 -0.2,0 -1.1,0.7 -0.8,0.7 -1.8,1.6 -0.9,0.9 -1.8,1.8 -0.8,0.9 -1.1,1.2 -1.2,1.3 -2.3,2.8 -1.1,1.5 -2.1,2.9 -0.6,0.8 -1,1.6 -0.4,0.8 -0.9,1.7 -0.3,0.5 -0.7,0.6 -0.4,0 -1,0 -0.5,0 -0.8,0.1 -0.3,0 -0.6,0.2 z m 20.5,-0.2 q -1.1,0 -1.8,-0.6 -0.7,-0.6 -0.7,-2.1 0,-0.3 0.1,-0.7 0,-0.4 0.1,-0.8 0.4,-1.9 1.6,-4.7 1.2,-2.7 3,-6.2 h -1.8 q -0.5,0 -0.5,-0.3 0,-0.1 0.2,-0.3 0.3,-0.1 0.8,-0.1 h 1.7 q 0.8,-1.4 1.3,-2.2 0.5,-0.8 0.8,-1.2 1.3,-1.6 2.3,-2.2 1,-0.7 1.8,-0.8 0.7,-0.1 1.1,-0.1 -0.7,0.8 -1.5,1.9 -0.8,1.1 -1.6,2.4 -0.7,1.2 -1.2,2.2 h 4.8 q 0.5,0 0.5,0.2 0,0.2 -0.3,0.4 -0.2,0.1 -0.7,0.1 h -4.8 q -0.8,1.4 -1.4,2.5 -0.6,1 -1.2,2.2 -0.6,1.2 -1.4,3 -0.7,1.5 -1,2.5 -0.3,1 -0.3,1.8 0,0.9 0.4,1.2 0.4,0.4 0.9,0.4 0.6,0 1.4,-0.4 1,-0.5 2.1,-1.5 1,-1 1.9,-2 0.5,-0.5 1,-1 0.4,-0.5 0.8,-1 0.1,-0.2 0.2,-0.2 0.3,0 0.3,0.4 0,0.3 -0.2,0.5 -1,1.2 -2.1,2.5 -1.3,1.5 -2.9,2.9 -1.5,1.3 -3.7,1.3 z m 11.1,0.2 q -1.8,0 -2.7,-1.1 -0.8,-1.1 -0.8,-2.9 0,-2 1,-4.4 1,-2.1 2.4,-3.9 1.6,-1.7 3.3,-2.8 1.8,-1.1 3.4,-1.1 1.9,0 2.8,1.2 1,1.2 1,3 0,2 -1,4.2 -0.6,1.1 -1.6,2.5 -1,1.3 -2.3,2.5 -1.2,1.3 -2.7,2.1 -1.4,0.7 -2.8,0.7 z m 0.9,-0.9 q 1,0 2,-0.7 1,-0.7 1.9,-1.7 0.9,-1 1.6,-2 0.7,-1 1,-1.8 0.8,-1.5 1.2,-2.9 0.4,-1.4 0.4,-2.4 0,-2.3 -1.7,-2.3 -1.1,0 -2.3,0.8 -1.1,0.9 -2.2,2.2 -1.1,1.4 -1.9,3.1 -1.7,3.4 -1.7,5.6 0,1.7 1.1,2 0.1,0 0.3,0.1 0.1,0 0.3,0 z m 15,1.7 q -1.8,0 -3.8,-1.5 -0.9,-0.6 -1.5,-1.7 -0.3,-0.6 -0.3,-1.2 0,-0.8 0.5,-0.8 0.2,0 0.6,0.4 0.3,0.4 0.6,1 0.5,1 0.9,1.7 0.5,0.7 1.6,0.7 0.9,0 1.5,-1.1 0.6,-1.1 1,-2.8 0.4,-1.7 0.5,-3.6 0.2,-1.9 0.2,-3.5 0.1,-1.6 0.1,-2.5 -2.2,2.7 -4.2,5.1 -1.9,2.4 -3.7,4.5 -0.2,0.3 -0.3,0.3 -0.2,0 -0.2,-0.3 0,-0.6 0.3,-0.9 0.9,-1.1 2,-2.5 1.2,-1.4 2.3,-2.9 1.2,-1.4 2.1,-2.5 1,-1.1 1.4,-1.7 0,-1.4 0.7,-2.2 0.6,-0.9 1.6,-1.3 0.9,-0.3 1.8,-0.3 0.8,0 1.2,0.1 0.3,0.2 0.3,0.4 0,0.1 -0.5,0.3 -1.1,0.2 -1.6,1.2 -0.5,0.9 -0.6,2.2 -0.1,1.3 -0.1,2.8 0,2.2 -0.2,4.6 -0.2,2.4 -0.6,4.1 -0.1,0.3 -0.3,0.7 -0.1,0.4 -0.3,0.8 1.4,-1 2.6,-2.1 1.3,-1.1 2,-1.9 0.6,-0.5 0.9,-1 0.5,-0.5 0.9,-1 0.1,-0.2 0.2,-0.2 0.3,0 0.3,0.4 0,0.3 -0.2,0.5 -1,1.2 -2.1,2.5 -1,1.3 -2.2,2.3 -0.5,0.5 -1.3,1.1 -0.8,0.7 -1.6,1.1 -1.4,0.7 -2.5,0.7 z" />
  </g>
</svg>
